<svg width="856" height="76" viewBox="0 0 856 76" fill="none" xmlns="http://www.w3.org/2000/svg">
<path d="M25.2 75.152C21.232 75.152 17.552 75.088 14.16 74.96C10.768 74.832 6.128 74.544 0.24 74.096V7.952H33.264C37.936 7.952 42.128 8.624 45.84 9.96799C49.616 11.248 52.56 13.104 54.672 15.536C56.784 17.968 57.84 20.784 57.84 23.984C57.84 27.952 56.976 31.088 55.248 33.392C53.52 35.632 50.896 37.2 47.376 38.096C56.336 39.504 60.816 44.784 60.816 53.936C60.816 60.272 57.904 65.392 52.08 69.296C46.32 73.2 37.36 75.152 25.2 75.152ZM29.232 34.064C31.728 34.064 33.776 33.456 35.376 32.24C37.04 31.024 37.872 29.456 37.872 27.536C37.872 22.992 35.056 20.72 29.424 20.72H21.648V34.064H29.232ZM28.848 60.08C32.368 60.08 35.056 59.44 36.912 58.16C38.832 56.816 39.792 54.96 39.792 52.592C39.792 50.032 38.928 48.08 37.2 46.736C35.472 45.328 33.008 44.624 29.808 44.624H21.552V59.792C24.432 59.984 26.864 60.08 28.848 60.08ZM89.2035 74.768C85.0435 74.768 81.1395 73.68 77.4915 71.504C73.9075 69.264 71.0275 66.256 68.8515 62.48C66.6755 58.64 65.5875 54.384 65.5875 49.712C65.5875 45.104 66.6755 40.944 68.8515 37.232C71.0275 33.456 73.9395 30.512 77.5875 28.4C81.2355 26.288 85.1075 25.232 89.2035 25.232C92.5315 25.232 95.6035 26.16 98.4195 28.016C101.3 29.872 103.476 32.656 104.948 36.368V25.232H125.108V74H104.948V65.072C101.748 71.536 96.4995 74.768 89.2035 74.768ZM95.4435 59.6C98.0035 59.6 100.18 58.704 101.972 56.912C103.828 55.056 104.82 52.88 104.948 50.384V49.616C104.82 47.056 103.796 44.88 101.876 43.088C100.02 41.296 97.8755 40.4 95.4435 40.4C92.7555 40.4 90.4515 41.36 88.5315 43.28C86.6755 45.136 85.7475 47.376 85.7475 50C85.7475 52.688 86.7075 54.96 88.6275 56.816C90.5475 58.672 92.8195 59.6 95.4435 59.6ZM151.727 74.768C146.287 74.768 142.063 73.072 139.055 69.68C136.111 66.224 134.639 61.52 134.639 55.568V10.736L154.895 7.75999V54.128C154.895 55.92 155.311 57.232 156.143 58.064C157.039 58.832 158.575 59.216 160.751 59.216C162.351 59.216 163.919 58.832 165.455 58.064L166.127 71.504C161.839 73.68 157.039 74.768 151.727 74.768ZM192.329 74.768C188.169 74.768 184.265 73.68 180.617 71.504C177.033 69.264 174.153 66.256 171.977 62.48C169.801 58.64 168.713 54.384 168.713 49.712C168.713 45.104 169.801 40.944 171.977 37.232C174.153 33.456 177.065 30.512 180.713 28.4C184.361 26.288 188.233 25.232 192.329 25.232C195.657 25.232 198.729 26.16 201.545 28.016C204.425 29.872 206.601 32.656 208.073 36.368V25.232H228.233V74H208.073V65.072C204.873 71.536 199.625 74.768 192.329 74.768ZM198.569 59.6C201.129 59.6 203.305 58.704 205.097 56.912C206.953 55.056 207.945 52.88 208.073 50.384V49.616C207.945 47.056 206.921 44.88 205.001 43.088C203.145 41.296 201.001 40.4 198.569 40.4C195.881 40.4 193.576 41.36 191.656 43.28C189.801 45.136 188.873 47.376 188.873 50C188.873 52.688 189.833 54.96 191.753 56.816C193.673 58.672 195.945 59.6 198.569 59.6ZM237.956 26.576H257.252V36.368C260.964 28.944 266.852 25.232 274.916 25.232C281.06 25.232 285.86 27.44 289.316 31.856C292.836 36.208 294.596 42.256 294.596 50V74H274.436V47.984C274.436 45.232 273.828 43.12 272.612 41.648C271.46 40.176 269.828 39.44 267.716 39.44C266.18 39.44 264.676 39.952 263.204 40.976C261.732 41.936 260.516 43.344 259.556 45.2C258.66 47.056 258.212 49.168 258.212 51.536V74H237.956V26.576ZM327.575 74.768C322.455 74.768 317.911 73.744 313.943 71.696C310.039 69.584 306.967 66.64 304.727 62.864C302.551 59.088 301.463 54.8 301.463 50C301.463 45.392 302.615 41.2 304.919 37.424C307.223 33.648 310.359 30.672 314.327 28.496C318.295 26.32 322.711 25.232 327.575 25.232C333.783 25.232 338.679 26.512 342.263 29.072L340.439 41.84C336.791 40.752 333.783 40.208 331.415 40.208C328.343 40.208 325.911 41.104 324.119 42.896C322.327 44.624 321.431 46.992 321.431 50C321.431 53.008 322.327 55.408 324.119 57.2C325.911 58.992 328.279 59.888 331.223 59.888C333.783 59.888 336.791 59.344 340.247 58.256L342.071 71.696C339.895 72.784 337.687 73.552 335.447 74C333.207 74.512 330.583 74.768 327.575 74.768ZM373.445 74.768C368.133 74.768 363.397 73.712 359.237 71.6C355.141 69.424 351.941 66.48 349.637 62.768C347.333 58.992 346.181 54.736 346.181 50C346.181 45.136 347.365 40.816 349.733 37.04C352.101 33.264 355.301 30.352 359.333 28.304C363.365 26.256 367.845 25.232 372.773 25.232C377.509 25.232 381.541 26.288 384.869 28.4C388.261 30.448 390.789 33.264 392.453 36.848C394.117 40.368 394.949 44.336 394.949 48.752C394.949 49.904 394.885 50.736 394.757 51.248L365.957 54.992C366.725 57.232 367.973 58.864 369.701 59.888C371.429 60.848 373.701 61.328 376.517 61.328C380.869 61.328 385.573 60.208 390.629 57.968L393.029 70.832C387.077 73.456 380.549 74.768 373.445 74.768ZM380.069 42.896C379.045 38.864 376.613 36.848 372.773 36.848C370.469 36.848 368.645 37.712 367.301 39.44C365.957 41.168 365.253 43.408 365.189 46.16L380.069 42.896ZM441.719 75.536C432.695 75.536 425.079 73.872 418.871 70.544L423.671 55.664C430.263 58.032 436.151 59.216 441.335 59.216C444.151 59.216 446.199 58.896 447.479 58.256C448.823 57.552 449.495 56.528 449.495 55.184C449.495 54.288 449.143 53.52 448.439 52.88C447.735 52.176 446.327 51.408 444.215 50.576C442.103 49.744 438.935 48.72 434.711 47.504C429.527 45.968 425.495 43.472 422.615 40.016C419.735 36.496 418.295 32.464 418.295 27.92C418.295 20.88 420.599 15.568 425.207 11.984C429.879 8.336 436.151 6.512 444.023 6.512C448.119 6.512 452.151 6.96 456.119 7.856C460.087 8.688 463.607 9.936 466.679 11.6L461.495 26.096C457.911 24.88 454.775 24.016 452.087 23.504C449.463 22.928 446.903 22.64 444.407 22.64C440.183 22.64 438.071 23.792 438.071 26.096C438.071 27.248 438.743 28.24 440.087 29.072C441.495 29.84 444.343 30.832 448.631 32.048C455.351 33.84 460.439 36.592 463.895 40.304C467.351 43.952 469.079 48.336 469.079 53.456C469.079 60.56 466.775 66.032 462.167 69.872C457.559 73.648 450.743 75.536 441.719 75.536ZM501.892 74.768C496.516 74.768 491.716 73.712 487.492 71.6C483.332 69.488 480.068 66.576 477.7 62.864C475.396 59.088 474.244 54.768 474.244 49.904C474.244 45.04 475.428 40.752 477.796 37.04C480.164 33.264 483.428 30.352 487.588 28.304C491.812 26.256 496.612 25.232 501.988 25.232C507.428 25.232 512.228 26.288 516.388 28.4C520.612 30.448 523.876 33.328 526.18 37.04C528.484 40.752 529.636 45.04 529.636 49.904C529.636 54.832 528.452 59.184 526.084 62.96C523.78 66.672 520.516 69.584 516.292 71.696C512.132 73.744 507.332 74.768 501.892 74.768ZM502.084 60.368C504.708 60.368 506.852 59.408 508.516 57.488C510.244 55.504 511.108 52.976 511.108 49.904C511.108 46.832 510.244 44.336 508.516 42.416C506.852 40.432 504.708 39.44 502.084 39.44C499.46 39.44 497.284 40.432 495.556 42.416C493.892 44.336 493.06 46.832 493.06 49.904C493.06 52.976 493.892 55.504 495.556 57.488C497.284 59.408 499.46 60.368 502.084 60.368ZM539.823 37.808H533.775V25.904H539.823V21.872C539.823 14.768 541.519 9.392 544.911 5.744C548.367 2.096 553.167 0.271999 559.311 0.271999C564.239 0.271999 568.815 1.52 573.039 4.016L572.367 16.976C568.655 15.504 565.551 14.768 563.055 14.768C561.135 14.768 559.663 15.248 558.639 16.208C557.615 17.104 557.103 18.416 557.103 20.144C557.103 21.808 557.647 23.728 558.735 25.904H572.175V37.808H560.079V74H539.823V37.808ZM598.918 74.768C593.286 74.768 588.902 73.168 585.766 69.968C582.63 66.704 581.062 62.224 581.062 56.528V37.808H574.918V25.904H582.502L591.43 7.75999H601.126V25.904H612.262V37.808H601.126V54.128C601.126 55.728 601.638 56.976 602.662 57.872C603.686 58.768 605.126 59.216 606.982 59.216C608.71 59.216 610.278 58.832 611.686 58.064L612.454 71.504C610.854 72.464 608.774 73.264 606.214 73.904C603.718 74.48 601.286 74.768 598.918 74.768ZM616.733 25.904H636.317L641.789 57.104L648.413 25.904H664.925L671.645 57.872L677.117 25.904H692.861L682.877 74H659.933L654.557 48.56L649.469 74H627.293L616.733 25.904ZM720.235 74.768C716.075 74.768 712.171 73.68 708.523 71.504C704.939 69.264 702.059 66.256 699.883 62.48C697.707 58.64 696.619 54.384 696.619 49.712C696.619 45.104 697.707 40.944 699.883 37.232C702.059 33.456 704.971 30.512 708.619 28.4C712.267 26.288 716.139 25.232 720.235 25.232C723.563 25.232 726.635 26.16 729.451 28.016C732.331 29.872 734.507 32.656 735.979 36.368V25.232H756.139V74H735.979V65.072C732.779 71.536 727.531 74.768 720.235 74.768ZM726.475 59.6C729.035 59.6 731.211 58.704 733.003 56.912C734.859 55.056 735.851 52.88 735.979 50.384V49.616C735.851 47.056 734.827 44.88 732.907 43.088C731.051 41.296 728.907 40.4 726.475 40.4C723.787 40.4 721.483 41.36 719.563 43.28C717.707 45.136 716.779 47.376 716.779 50C716.779 52.688 717.739 54.96 719.659 56.816C721.579 58.672 723.851 59.6 726.475 59.6ZM765.863 26.576H786.119V36.368C787.591 32.592 789.575 29.808 792.071 28.016C794.631 26.16 797.607 25.232 800.999 25.232L803.783 40.88C797.703 40.88 793.223 41.552 790.343 42.896C787.527 44.176 786.119 46.224 786.119 49.04V74H765.863V26.576ZM833.57 74.768C828.258 74.768 823.522 73.712 819.362 71.6C815.266 69.424 812.066 66.48 809.762 62.768C807.458 58.992 806.306 54.736 806.306 50C806.306 45.136 807.49 40.816 809.858 37.04C812.226 33.264 815.426 30.352 819.458 28.304C823.49 26.256 827.97 25.232 832.898 25.232C837.634 25.232 841.666 26.288 844.994 28.4C848.386 30.448 850.914 33.264 852.578 36.848C854.242 40.368 855.074 44.336 855.074 48.752C855.074 49.904 855.01 50.736 854.882 51.248L826.082 54.992C826.85 57.232 828.098 58.864 829.826 59.888C831.554 60.848 833.826 61.328 836.642 61.328C840.994 61.328 845.698 60.208 850.754 57.968L853.154 70.832C847.202 73.456 840.674 74.768 833.57 74.768ZM840.194 42.896C839.17 38.864 836.738 36.848 832.898 36.848C830.594 36.848 828.77 37.712 827.426 39.44C826.082 41.168 825.378 43.408 825.314 46.16L840.194 42.896Z" fill="#FFFCFC"/>
</svg>
