
<svg xmlns="http://www.w3.org/2000/svg" xmlns:xlink="http://www.w3.org/1999/xlink" width="500" zoomAndPan="magnify" viewBox="0 0 375 374.999991" height="500" preserveAspectRatio="xMidYMid meet" version="1.0"><defs><g/></defs><g fill="#000000" fill-opacity="1"><g transform="translate(-4.828, 213.458471)"><g><path d="M 42.734375 -58.5625 C 47.972656 -58.5625 52.734375 -57.359375 57.015625 -54.953125 C 61.304688 -52.546875 64.707031 -49.09375 67.21875 -44.59375 C 69.738281 -40.09375 71 -34.863281 71 -28.90625 C 71 -22.957031 69.738281 -17.710938 67.21875 -13.171875 C 64.707031 -8.640625 61.304688 -5.148438 57.015625 -2.703125 C 52.734375 -0.265625 47.972656 0.953125 42.734375 0.953125 C 35.148438 0.953125 29.476562 -1.273438 25.71875 -5.734375 L 25.71875 0 L 6.484375 0 L 6.484375 -78.875 L 26.6875 -78.875 L 26.6875 -52.609375 C 30.582031 -56.578125 35.929688 -58.5625 42.734375 -58.5625 Z M 38.484375 -15.09375 C 42.023438 -15.09375 44.925781 -16.3125 47.1875 -18.75 C 49.457031 -21.195312 50.59375 -24.582031 50.59375 -28.90625 C 50.59375 -33.164062 49.457031 -36.5 47.1875 -38.90625 C 44.925781 -41.3125 42.023438 -42.515625 38.484375 -42.515625 C 34.941406 -42.515625 32.035156 -41.3125 29.765625 -38.90625 C 27.492188 -36.5 26.359375 -33.164062 26.359375 -28.90625 C 26.359375 -24.582031 27.492188 -21.195312 29.765625 -18.75 C 32.035156 -16.3125 34.941406 -15.09375 38.484375 -15.09375 Z M 38.484375 -15.09375 "/></g></g></g><g fill="#000000" fill-opacity="1"><g transform="translate(58.20663, 213.458471)"><g><path d="M 31.03125 -58.5625 C 40.601562 -58.5625 47.90625 -56.382812 52.9375 -52.03125 C 57.96875 -47.675781 60.484375 -41 60.484375 -32 L 60.484375 0 L 41.671875 0 L 41.671875 -7.4375 C 38.765625 -1.84375 33.09375 0.953125 24.65625 0.953125 C 20.195312 0.953125 16.335938 0.175781 13.078125 -1.375 C 9.816406 -2.9375 7.351562 -5.046875 5.6875 -7.703125 C 4.019531 -10.359375 3.1875 -13.390625 3.1875 -16.796875 C 3.1875 -22.253906 5.273438 -26.488281 9.453125 -29.5 C 13.640625 -32.507812 20.09375 -34.015625 28.8125 -34.015625 L 40.28125 -34.015625 C 39.925781 -40.109375 35.851562 -43.15625 28.0625 -43.15625 C 25.300781 -43.15625 22.5 -42.710938 19.65625 -41.828125 C 16.820312 -40.941406 14.414062 -39.71875 12.4375 -38.15625 L 5.640625 -51.875 C 8.828125 -54 12.703125 -55.644531 17.265625 -56.8125 C 21.835938 -57.976562 26.425781 -58.5625 31.03125 -58.5625 Z M 30.296875 -11.796875 C 32.628906 -11.796875 34.679688 -12.363281 36.453125 -13.5 C 38.234375 -14.632812 39.507812 -16.300781 40.28125 -18.5 L 40.28125 -23.484375 L 31.5625 -23.484375 C 25.6875 -23.484375 22.75 -21.535156 22.75 -17.640625 C 22.75 -15.867188 23.421875 -14.453125 24.765625 -13.390625 C 26.109375 -12.328125 27.953125 -11.796875 30.296875 -11.796875 Z M 30.296875 -11.796875 "/></g></g></g><g fill="#000000" fill-opacity="1"><g transform="translate(114.119324, 213.458471)"><g><path d="M 6.484375 -78.875 L 26.6875 -78.875 L 26.6875 0 L 6.484375 0 Z M 6.484375 -78.875 "/></g></g></g><g fill="#000000" fill-opacity="1"><g transform="translate(136.54817, 213.458471)"><g><path d="M 31.03125 -58.5625 C 40.601562 -58.5625 47.90625 -56.382812 52.9375 -52.03125 C 57.96875 -47.675781 60.484375 -41 60.484375 -32 L 60.484375 0 L 41.671875 0 L 41.671875 -7.4375 C 38.765625 -1.84375 33.09375 0.953125 24.65625 0.953125 C 20.195312 0.953125 16.335938 0.175781 13.078125 -1.375 C 9.816406 -2.9375 7.351562 -5.046875 5.6875 -7.703125 C 4.019531 -10.359375 3.1875 -13.390625 3.1875 -16.796875 C 3.1875 -22.253906 5.273438 -26.488281 9.453125 -29.5 C 13.640625 -32.507812 20.09375 -34.015625 28.8125 -34.015625 L 40.28125 -34.015625 C 39.925781 -40.109375 35.851562 -43.15625 28.0625 -43.15625 C 25.300781 -43.15625 22.5 -42.710938 19.65625 -41.828125 C 16.820312 -40.941406 14.414062 -39.71875 12.4375 -38.15625 L 5.640625 -51.875 C 8.828125 -54 12.703125 -55.644531 17.265625 -56.8125 C 21.835938 -57.976562 26.425781 -58.5625 31.03125 -58.5625 Z M 30.296875 -11.796875 C 32.628906 -11.796875 34.679688 -12.363281 36.453125 -13.5 C 38.234375 -14.632812 39.507812 -16.300781 40.28125 -18.5 L 40.28125 -23.484375 L 31.5625 -23.484375 C 25.6875 -23.484375 22.75 -21.535156 22.75 -17.640625 C 22.75 -15.867188 23.421875 -14.453125 24.765625 -13.390625 C 26.109375 -12.328125 27.953125 -11.796875 30.296875 -11.796875 Z M 30.296875 -11.796875 "/></g></g></g><g fill="#000000" fill-opacity="1"><g transform="translate(192.460863, 213.458471)"><g><path d="M 44 -58.5625 C 51.164062 -58.5625 56.925781 -56.4375 61.28125 -52.1875 C 65.632812 -47.9375 67.8125 -41.523438 67.8125 -32.953125 L 67.8125 0 L 47.625 0 L 47.625 -29.65625 C 47.625 -37.519531 44.46875 -41.453125 38.15625 -41.453125 C 34.6875 -41.453125 31.90625 -40.316406 29.8125 -38.046875 C 27.726562 -35.785156 26.6875 -32.382812 26.6875 -27.84375 L 26.6875 0 L 6.484375 0 L 6.484375 -57.609375 L 25.71875 -57.609375 L 25.71875 -51.34375 C 27.988281 -53.675781 30.679688 -55.460938 33.796875 -56.703125 C 36.921875 -57.941406 40.320312 -58.5625 44 -58.5625 Z M 44 -58.5625 "/></g></g></g><g fill="#000000" fill-opacity="1"><g transform="translate(255.601819, 213.458471)"><g><path d="M 35.921875 0.953125 C 29.546875 0.953125 23.84375 -0.320312 18.8125 -2.875 C 13.78125 -5.425781 9.863281 -8.96875 7.0625 -13.5 C 4.269531 -18.03125 2.875 -23.164062 2.875 -28.90625 C 2.875 -34.644531 4.269531 -39.765625 7.0625 -44.265625 C 9.863281 -48.765625 13.78125 -52.269531 18.8125 -54.78125 C 23.84375 -57.300781 29.546875 -58.5625 35.921875 -58.5625 C 42.441406 -58.5625 48.078125 -57.160156 52.828125 -54.359375 C 57.578125 -51.566406 60.941406 -47.691406 62.921875 -42.734375 L 47.296875 -34.765625 C 44.679688 -39.929688 40.859375 -42.515625 35.828125 -42.515625 C 32.210938 -42.515625 29.21875 -41.3125 26.84375 -38.90625 C 24.46875 -36.5 23.28125 -33.164062 23.28125 -28.90625 C 23.28125 -24.582031 24.46875 -21.195312 26.84375 -18.75 C 29.21875 -16.3125 32.210938 -15.09375 35.828125 -15.09375 C 40.859375 -15.09375 44.679688 -17.679688 47.296875 -22.859375 L 62.921875 -14.875 C 60.941406 -9.914062 57.578125 -6.035156 52.828125 -3.234375 C 48.078125 -0.441406 42.441406 0.953125 35.921875 0.953125 Z M 35.921875 0.953125 "/></g></g></g><g fill="#000000" fill-opacity="1"><g transform="translate(308.857072, 213.458471)"><g><path d="M 65.375 -28.703125 C 65.375 -28.554688 65.265625 -26.890625 65.046875 -23.703125 L 23.171875 -23.703125 C 24.023438 -20.722656 25.671875 -18.4375 28.109375 -16.84375 C 30.554688 -15.25 33.625 -14.453125 37.3125 -14.453125 C 40.070312 -14.453125 42.460938 -14.84375 44.484375 -15.625 C 46.503906 -16.40625 48.539062 -17.679688 50.59375 -19.453125 L 61.234375 -8.390625 C 55.628906 -2.160156 47.441406 0.953125 36.671875 0.953125 C 29.941406 0.953125 24.023438 -0.320312 18.921875 -2.875 C 13.816406 -5.425781 9.863281 -8.96875 7.0625 -13.5 C 4.269531 -18.03125 2.875 -23.164062 2.875 -28.90625 C 2.875 -34.582031 4.238281 -39.671875 6.96875 -44.171875 C 9.695312 -48.671875 13.46875 -52.191406 18.28125 -54.734375 C 23.101562 -57.285156 28.523438 -58.5625 34.546875 -58.5625 C 40.285156 -58.5625 45.492188 -57.375 50.171875 -55 C 54.847656 -52.632812 58.550781 -49.203125 61.28125 -44.703125 C 64.007812 -40.203125 65.375 -34.867188 65.375 -28.703125 Z M 34.65625 -44.21875 C 31.53125 -44.21875 28.921875 -43.332031 26.828125 -41.5625 C 24.742188 -39.789062 23.421875 -37.378906 22.859375 -34.328125 L 46.453125 -34.328125 C 45.878906 -37.378906 44.546875 -39.789062 42.453125 -41.5625 C 40.367188 -43.332031 37.769531 -44.21875 34.65625 -44.21875 Z M 34.65625 -44.21875 "/></g></g></g><g fill="#151f28" fill-opacity="1"><g transform="translate(125.71113, 259.254562)"><g><path d="M 8.359375 0.53125 C 6.460938 0.53125 4.859375 -0.0976562 3.546875 -1.359375 C 2.242188 -2.628906 1.59375 -4.226562 1.59375 -6.15625 C 1.59375 -8.132812 2.234375 -9.734375 3.515625 -10.953125 C 4.804688 -12.179688 6.421875 -12.796875 8.359375 -12.796875 C 10.328125 -12.796875 11.941406 -12.179688 13.203125 -10.953125 C 14.472656 -9.734375 15.109375 -8.132812 15.109375 -6.15625 C 15.109375 -4.226562 14.46875 -2.628906 13.1875 -1.359375 C 11.90625 -0.0976562 10.296875 0.53125 8.359375 0.53125 Z M 8.359375 0.53125 "/></g></g></g><g fill="#fbbd16" fill-opacity="1"><g transform="translate(136.443943, 259.254562)"><g><path d="M 15.296875 0.53125 C 12.609375 0.53125 9.957031 0.226562 7.34375 -0.375 C 4.738281 -0.988281 2.644531 -1.789062 1.0625 -2.78125 L 4.4375 -10.484375 C 5.90625 -9.578125 7.644531 -8.859375 9.65625 -8.328125 C 11.675781 -7.796875 13.671875 -7.53125 15.640625 -7.53125 C 17.460938 -7.53125 18.757812 -7.71875 19.53125 -8.09375 C 20.300781 -8.46875 20.6875 -9.007812 20.6875 -9.71875 C 20.6875 -10.425781 20.21875 -10.925781 19.28125 -11.21875 C 18.351562 -11.519531 16.882812 -11.8125 14.875 -12.09375 C 12.300781 -12.40625 10.113281 -12.816406 8.3125 -13.328125 C 6.519531 -13.847656 4.972656 -14.796875 3.671875 -16.171875 C 2.367188 -17.554688 1.71875 -19.492188 1.71875 -21.984375 C 1.71875 -24.035156 2.328125 -25.863281 3.546875 -27.46875 C 4.773438 -29.070312 6.566406 -30.335938 8.921875 -31.265625 C 11.273438 -32.191406 14.085938 -32.65625 17.359375 -32.65625 C 19.691406 -32.65625 22.003906 -32.414062 24.296875 -31.9375 C 26.585938 -31.46875 28.503906 -30.796875 30.046875 -29.921875 L 26.671875 -22.28125 C 23.828125 -23.863281 20.742188 -24.65625 17.421875 -24.65625 C 15.640625 -24.65625 14.332031 -24.445312 13.5 -24.03125 C 12.675781 -23.613281 12.265625 -23.070312 12.265625 -22.40625 C 12.265625 -21.65625 12.71875 -21.128906 13.625 -20.828125 C 14.539062 -20.535156 16.046875 -20.226562 18.140625 -19.90625 C 20.785156 -19.519531 22.976562 -19.066406 24.71875 -18.546875 C 26.457031 -18.035156 27.96875 -17.097656 29.25 -15.734375 C 30.53125 -14.367188 31.171875 -12.460938 31.171875 -10.015625 C 31.171875 -8.003906 30.554688 -6.195312 29.328125 -4.59375 C 28.109375 -2.988281 26.300781 -1.734375 23.90625 -0.828125 C 21.519531 0.078125 18.648438 0.53125 15.296875 0.53125 Z M 15.296875 0.53125 "/></g></g></g><g fill="#fbbd16" fill-opacity="1"><g transform="translate(162.809629, 259.254562)"><g><path d="M 19.734375 0.53125 C 16.296875 0.53125 13.191406 -0.175781 10.421875 -1.59375 C 7.660156 -3.019531 5.5 -4.992188 3.9375 -7.515625 C 2.375 -10.046875 1.59375 -12.914062 1.59375 -16.125 C 1.59375 -19.28125 2.375 -22.125 3.9375 -24.65625 C 5.5 -27.1875 7.648438 -29.148438 10.390625 -30.546875 C 13.140625 -31.953125 16.253906 -32.65625 19.734375 -32.65625 C 23.210938 -32.65625 26.332031 -31.953125 29.09375 -30.546875 C 31.863281 -29.148438 34.019531 -27.195312 35.5625 -24.6875 C 37.101562 -22.175781 37.875 -19.320312 37.875 -16.125 C 37.875 -12.914062 37.101562 -10.046875 35.5625 -7.515625 C 34.019531 -4.992188 31.863281 -3.019531 29.09375 -1.59375 C 26.332031 -0.175781 23.210938 0.53125 19.734375 0.53125 Z M 19.734375 -8.421875 C 21.710938 -8.421875 23.332031 -9.097656 24.59375 -10.453125 C 25.851562 -11.816406 26.484375 -13.707031 26.484375 -16.125 C 26.484375 -18.488281 25.851562 -20.34375 24.59375 -21.6875 C 23.332031 -23.03125 21.710938 -23.703125 19.734375 -23.703125 C 17.753906 -23.703125 16.132812 -23.03125 14.875 -21.6875 C 13.613281 -20.34375 12.984375 -18.488281 12.984375 -16.125 C 12.984375 -13.707031 13.613281 -11.816406 14.875 -10.453125 C 16.132812 -9.097656 17.753906 -8.421875 19.734375 -8.421875 Z M 19.734375 -8.421875 "/></g></g></g><g fill="#fbbd16" fill-opacity="1"><g transform="translate(196.226465, 259.254562)"><g><path d="M 15.890625 -30.9375 L 23.53125 -30.9375 L 23.53125 -22.515625 L 16.171875 -22.515625 L 16.171875 0 L 4.921875 0 L 4.921875 -22.515625 L 0.234375 -22.515625 L 0.234375 -30.9375 L 4.921875 -30.9375 L 4.921875 -31.765625 C 4.921875 -35.679688 6.09375 -38.785156 8.4375 -41.078125 C 10.789062 -43.367188 14.082031 -44.515625 18.3125 -44.515625 C 19.738281 -44.515625 21.125 -44.375 22.46875 -44.09375 C 23.8125 -43.8125 24.914062 -43.394531 25.78125 -42.84375 L 23 -34.90625 C 21.882812 -35.539062 20.753906 -35.859375 19.609375 -35.859375 C 18.429688 -35.859375 17.515625 -35.5 16.859375 -34.78125 C 16.210938 -34.070312 15.890625 -33.023438 15.890625 -31.640625 Z M 15.890625 -30.9375 "/></g></g></g><g fill="#fbbd16" fill-opacity="1"><g transform="translate(214.237408, 259.254562)"><g><path d="M 25.78125 -1.296875 C 24.832031 -0.710938 23.675781 -0.265625 22.3125 0.046875 C 20.945312 0.367188 19.492188 0.53125 17.953125 0.53125 C 13.765625 0.53125 10.546875 -0.492188 8.296875 -2.546875 C 6.046875 -4.597656 4.921875 -7.660156 4.921875 -11.734375 L 4.921875 -22.515625 L 0.234375 -22.515625 L 0.234375 -30.9375 L 4.921875 -30.9375 L 4.921875 -39.296875 L 16.171875 -39.296875 L 16.171875 -30.9375 L 23.53125 -30.9375 L 23.53125 -22.515625 L 16.171875 -22.515625 L 16.171875 -11.859375 C 16.171875 -10.710938 16.476562 -9.8125 17.09375 -9.15625 C 17.707031 -8.5 18.53125 -8.171875 19.5625 -8.171875 C 20.863281 -8.171875 22.007812 -8.507812 23 -9.1875 Z M 25.78125 -1.296875 "/></g></g></g><g fill="#fbbd16" fill-opacity="1"><g transform="translate(234.677748, 259.254562)"><g><path d="M 56.828125 -32.125 L 45.390625 0 L 34.5 0 L 28.453125 -17.484375 L 22.171875 0 L 11.265625 0 L -0.171875 -32.125 L 10.484375 -32.125 L 17.0625 -12.6875 L 23.890625 -32.125 L 33.484375 -32.125 L 40.125 -12.5 L 46.9375 -32.125 Z M 56.828125 -32.125 "/></g></g></g><g fill="#fbbd16" fill-opacity="1"><g transform="translate(285.278057, 259.254562)"><g><path d="M 17.3125 -32.65625 C 22.644531 -32.65625 26.710938 -31.4375 29.515625 -29 C 32.316406 -26.570312 33.71875 -22.851562 33.71875 -17.84375 L 33.71875 0 L 23.234375 0 L 23.234375 -4.15625 C 21.609375 -1.03125 18.445312 0.53125 13.75 0.53125 C 11.257812 0.53125 9.101562 0.0976562 7.28125 -0.765625 C 5.46875 -1.640625 4.097656 -2.816406 3.171875 -4.296875 C 2.242188 -5.773438 1.78125 -7.460938 1.78125 -9.359375 C 1.78125 -12.398438 2.941406 -14.757812 5.265625 -16.4375 C 7.597656 -18.125 11.195312 -18.96875 16.0625 -18.96875 L 22.46875 -18.96875 C 22.269531 -22.363281 19.992188 -24.0625 15.640625 -24.0625 C 14.097656 -24.0625 12.535156 -23.8125 10.953125 -23.3125 C 9.378906 -22.820312 8.039062 -22.144531 6.9375 -21.28125 L 3.140625 -28.921875 C 4.921875 -30.109375 7.082031 -31.023438 9.625 -31.671875 C 12.175781 -32.328125 14.738281 -32.65625 17.3125 -32.65625 Z M 16.890625 -6.578125 C 18.191406 -6.578125 19.335938 -6.890625 20.328125 -7.515625 C 21.316406 -8.148438 22.03125 -9.082031 22.46875 -10.3125 L 22.46875 -13.09375 L 17.609375 -13.09375 C 14.328125 -13.09375 12.6875 -12.007812 12.6875 -9.84375 C 12.6875 -8.851562 13.0625 -8.0625 13.8125 -7.46875 C 14.5625 -6.875 15.585938 -6.578125 16.890625 -6.578125 Z M 16.890625 -6.578125 "/></g></g></g><g fill="#fbbd16" fill-opacity="1"><g transform="translate(316.44326, 259.254562)"><g><path d="M 14.34375 -28.265625 C 15.488281 -29.734375 16.976562 -30.832031 18.8125 -31.5625 C 20.65625 -32.289062 22.757812 -32.65625 25.125 -32.65625 L 25.125 -22.515625 C 24.101562 -22.640625 23.253906 -22.703125 22.578125 -22.703125 C 20.171875 -22.703125 18.285156 -22.046875 16.921875 -20.734375 C 15.554688 -19.429688 14.875 -17.4375 14.875 -14.75 L 14.875 0 L 3.609375 0 L 3.609375 -32.125 L 14.34375 -32.125 Z M 14.34375 -28.265625 "/></g></g></g><g fill="#fbbd16" fill-opacity="1"><g transform="translate(336.646574, 259.254562)"><g><path d="M 36.453125 -16 C 36.453125 -15.925781 36.390625 -15 36.265625 -13.21875 L 12.921875 -13.21875 C 13.390625 -11.5625 14.304688 -10.285156 15.671875 -9.390625 C 17.035156 -8.503906 18.742188 -8.0625 20.796875 -8.0625 C 22.335938 -8.0625 23.671875 -8.273438 24.796875 -8.703125 C 25.921875 -9.140625 27.054688 -9.851562 28.203125 -10.84375 L 34.140625 -4.6875 C 31.015625 -1.207031 26.453125 0.53125 20.453125 0.53125 C 16.691406 0.53125 13.390625 -0.175781 10.546875 -1.59375 C 7.703125 -3.019531 5.5 -4.992188 3.9375 -7.515625 C 2.375 -10.046875 1.59375 -12.914062 1.59375 -16.125 C 1.59375 -19.28125 2.351562 -22.113281 3.875 -24.625 C 5.394531 -27.132812 7.5 -29.097656 10.1875 -30.515625 C 12.875 -31.941406 15.898438 -32.65625 19.265625 -32.65625 C 22.460938 -32.65625 25.363281 -31.992188 27.96875 -30.671875 C 30.582031 -29.347656 32.648438 -27.429688 34.171875 -24.921875 C 35.691406 -22.410156 36.453125 -19.4375 36.453125 -16 Z M 19.328125 -24.65625 C 17.585938 -24.65625 16.132812 -24.160156 14.96875 -23.171875 C 13.800781 -22.179688 13.054688 -20.835938 12.734375 -19.140625 L 25.90625 -19.140625 C 25.582031 -20.835938 24.835938 -22.179688 23.671875 -23.171875 C 22.503906 -24.160156 21.054688 -24.65625 19.328125 -24.65625 Z M 19.328125 -24.65625 "/></g></g></g></svg>